#!OML:ASF G:\ViconDB\ViconDB\414\test\team2\shane.ASF
:FULLY-SPECIFIED
:DEGREES
333
root 4.16195 16.2023 21.5107 -10.8072 1.21636 -3.25694
lowerback 8.44923 0.141997 0.179864
upperback 6.76285 0.195356 0.78401
thorax 2.26654 0.0885291 0.696095
lowerneck -20.509 -4.18488 -8.3234
upperneck 18.0251 -5.82585 11.4019
head 9.69382 -2.01803 4.54415
rclavicle 8.64713e-015 6.55989e-015
rhumerus -30.2377 8.43046 -91.5468
rradius 28.7333
rwrist 37.2454
rhand -31.0444 -14.61
rfingers 7.12502
rthumb -4.32603 -44.5458
lclavicle 8.64713e-015 6.55989e-015
lhumerus -30.6355 -10.7796 94.8847
lradius 24.0659
lwrist -17.748
lhand -42.705 9.72903
lfingers 7.12502
lthumb -15.5742 39.122
rfemur -5.79989 -16.9213 8.90539
rtibia 72.9355
rfoot -17.8567 0.298799
rtoes -12.4157
lfemur -0.965147 0.795705 -17.1947
ltibia 43.356
lfoot -32.9039 -8.89106
ltoes -6.71143
334
root 4.16698 16.2217 21.6619 -10.8389 1.07896 -3.52776
lowerback 8.46977 -0.160849 0.342808
upperback 6.7595 -0.200862 0.993861
thorax 2.2568 -0.109679 0.846318
lowerneck -20.5296 -3.87165 -8.08473
upperneck 18.1673 -5.40022 11.0884
head 9.68112 -1.8363 4.45805
rclavicle 1.98785e-016 -1.72943e-014
rhumerus -30.6114 7.81292 -91.2657
rradius 28.8457
rwrist 36.1101
rhand -31.3918 -15.4695
rfingers 7.12502
rthumb -4.66148 -45.3983
lclavicle 1.98785e-016 -1.72943e-014
lhumerus -29.9212 -11.1659 95.1336
lradius 24.156
lwrist -17.559
lhand -43.0876 10.1002
lfingers 7.12502
lthumb -15.9427 39.464
rfemur -7.35094 -16.7145 9.93176
rtibia 72.389
rfoot -18.5097 -0.353229
rtoes -13.6303
lfemur 0.146108 0.922789 -16.834
ltibia 42.3231
lfoot -32.8923 -9.01686
ltoes -6.85893
335
root 4.1764 16.2577 21.8063 -10.8386 1.07897 -3.59367
lowerback 8.76092 -0.406337 0.55683
upperback 6.64121 -0.510854 1.09438
thorax 1.97658 -0.260025 0.852179
lowerneck -20.5581 -3.56291 -8.08783
upperneck 18.5147 -4.97489 10.9989
head 9.75777 -1.64479 4.4993
rclavicle 1.25234e-014 1.98785e-016
rhumerus -31.0582 6.34008 -90.709
rradius 28.7188
rwrist 35.9355
rhand -31.7266 -16.3288
rfingers 7.12502
rthumb -4.98477 -46.2502
lclavicle 1.25234e-014 1.98785e-016
lhumerus -29.1723 -11.433 95.4246
lradius 24.3932
lwrist -16.995
lhand -42.9455 10.0613
lfingers 7.12502
lthumb -15.8058 39.4361
rfemur -8.92354 -16.4651 10.6333
rtibia 71.6529
rfoot -19.0866 -0.735894
rtoes -13.4739
lfemur 1.29617 0.89538 -16.781
ltibia 41.0873
lfoot -32.7177 -9.01913
ltoes -7.15738
336
root 4.18228 16.3089 21.9595 -10.7923 0.967036 -3.59757
lowerback 8.74857 -0.643362 0.502518
upperback 6.56643 -0.830749 1.2414
thorax 1.91217 -0.425968 1.05653
lowerneck -20.6769 -3.12479 -7.72487
upperneck 18.9443 -4.39867 10.5545
head 9.8458 -1.39387 4.37435
rclavicle -2.26739e-014 5.86415e-015
rhumerus -31.4033 4.19155 -89.8947
rradius 28.5102
rwrist 36.6606
rhand -31.9659 -16.5638
rfingers 7.12502
rthumb -5.21583 -46.4797
lclavicle -2.26739e-014 5.86415e-015
lhumerus -28.441 -11.529 95.5768
lradius 24.5005
lwrist -17.0238
lhand -43.012 9.71762
lfingers 7.12502
lthumb -15.8699 39.0873
rfemur -10.4083 -15.9529 11.3113
rtibia 70.6639
rfoot -19.5127 -0.871987
rtoes -13.4617
lfemur 2.55061 0.984132 -16.7565
ltibia 39.6664
lfoot -32.5073 -9.14862
ltoes -7.28709
337
root 4.18566 16.3641 22.1034 -10.6863 1.10339 -3.7329
lowerback 8.92581 -0.984686 0.590448
upperback 6.43895 -1.27587 1.44328
thorax 1.6922 -0.65065 1.25084
lowerneck -20.774 -2.91576 -7.71137
upperneck 19.2142 -4.06479 10.3006
head 9.91604 -1.2628 4.33744
rclavicle -2.50841e-014 6.55989e-015
rhumerus -31.8383 3.51605 -89.4192
rradius 28.4699
rwrist 36.3139
rhand -32.0512 -17.219
rfingers 7.12502
rthumb -5.29819 -47.1328
lclavicle -2.50841e-014 6.55989e-015
lhumerus -27.7767 -11.9995 95.9124
lradius 24.9073
lwrist -16.2582
lhand -42.8642 9.82454
lfingers 7.12502
lthumb -15.7275 39.2055
rfemur -11.8445 -15.8146 12.1041
rtibia 69.5172
rfoot -19.8985 -1.17628
rtoes -13.725
lfemur 3.73406 0.853227 -16.6196
ltibia 38.0508
lfoot -32.0174 -9.32689
ltoes -7.27271
338
root 4.18405 16.4276 22.254 -10.6289 1.14105 -3.72855
lowerback 8.98587 -1.27853 0.437727
upperback 6.31925 -1.67514 1.5583
thorax 1.55002 -0.858212 1.48706
lowerneck -20.7079 -2.55748 -7.39469
upperneck 19.5592 -3.64356 10.0852
head 9.97075 -1.06812 4.27714
rclavicle 4.3026e-014 -2.37237e-014
rhumerus -32.2988 1.96724 -88.7772
rradius 28.2041
rwrist 36.9416
rhand -32.1255 -17.3729
rfingers 7.12502
rthumb -5.36994 -47.2848
lclavicle 4.3026e-014 -2.37237e-014
lhumerus -27.1249 -12.0061 95.9119
lradius 25.166
lwrist -16.3696
lhand -42.5434 9.6084
lfingers 7.12502
lthumb -15.4187 39.0134
rfemur -13.0804 -15.448 12.7308
rtibia 68.1672
rfoot -20.0274 -1.26135
rtoes -12.6927
lfemur 5.11096 0.766126 -16.6014
ltibia 36.2284
lfoot -31.4068 -9.52969
ltoes -7.52126
